<svg width="90" height="90" viewBox="0 0 90 90" fill="none" xmlns="http://www.w3.org/2000/svg">
<path d="M17.31 75C15.5825 75 14.1413 74.4225 12.9863 73.2675C11.8313 72.1125 11.2525 70.67 11.25 68.94V32.31C11.25 30.5825 11.8288 29.1413 12.9863 27.9863C14.1438 26.8313 15.5837 26.2525 17.3062 26.25H33.75V21.0563C33.75 19.3313 34.3288 17.89 35.4863 16.7325C36.6438 15.575 38.085 14.9975 39.81 15H50.1938C51.9188 15 53.36 15.5775 54.5175 16.7325C55.675 17.8875 56.2525 19.3288 56.25 21.0563V26.25H72.6938C74.4188 26.25 75.8587 26.8288 77.0138 27.9863C78.1688 29.1438 78.7475 30.585 78.75 32.31V68.9438C78.75 70.6688 78.1712 72.11 77.0138 73.2675C75.8563 74.425 74.4163 75.0025 72.6938 75H17.31ZM37.5 26.25H52.5V21.0563C52.5 20.4813 52.26 19.9525 51.78 19.47C51.3 18.9875 50.7713 18.7475 50.1938 18.75H39.8062C39.2312 18.75 38.7025 18.99 38.22 19.47C37.7375 19.95 37.4975 20.4788 37.5 21.0563V26.25ZM75 54.375H52.5V56.97C52.5 57.84 52.2125 58.5625 51.6375 59.1375C51.0625 59.7125 50.34 60 49.47 60H40.53C39.66 60 38.9375 59.7125 38.3625 59.1375C37.7875 58.5625 37.5 57.84 37.5 56.97V54.375H15V68.9438C15 69.5188 15.24 70.0475 15.72 70.53C16.2 71.0125 16.7287 71.2525 17.3062 71.25H72.6938C73.2687 71.25 73.7975 71.01 74.28 70.53C74.7625 70.05 75.0025 69.52 75 68.94V54.375ZM41.25 56.25H48.75V48.75H41.25V56.25ZM15 50.625H37.5V48.03C37.5 47.16 37.7875 46.4375 38.3625 45.8625C38.9375 45.2875 39.66 45 40.53 45H49.47C50.34 45 51.0625 45.2875 51.6375 45.8625C52.2125 46.4375 52.5 47.16 52.5 48.03V50.625H75V32.31C75 31.7325 74.76 31.2025 74.28 30.72C73.8 30.2375 73.2713 29.9975 72.6938 30H17.3062C16.7312 30 16.2025 30.24 15.72 30.72C15.2375 31.2 14.9975 31.73 15 32.31V50.625Z" fill="#171717"/>
</svg>
