<svg width="90" height="90" viewBox="0 0 90 90" fill="none" xmlns="http://www.w3.org/2000/svg">
<path d="M24.4274 7.5C19.5374 7.98375 16.2449 9.07125 13.7849 11.535C9.37866 15.9488 9.37866 23.055 9.37866 37.2713V52.3462C9.37866 66.5587 9.37866 73.6687 13.7849 78.0862C18.1912 82.5037 25.2862 82.5 39.4724 82.5H46.9987C61.1849 82.5 68.2799 82.5 72.6862 78.0862C76.6874 74.0737 77.0587 67.8975 77.0924 56.1638" stroke="#171717" stroke-width="3" stroke-linecap="round" stroke-linejoin="round"/>
<path d="M39.4724 26.25L43.2337 39.375C45.3337 43.5375 47.9699 44.625 54.5212 45C59.7299 44.8725 62.7524 44.2575 65.3324 42.015C67.0912 40.485 67.8862 38.1788 68.2724 35.8838L69.5624 28.125M78.9674 20.625V39.375M32.2537 18.4988C38.2049 13.56 43.5074 10.9088 54.5062 7.99126C55.747 7.66367 57.0524 7.67013 58.2899 8.01001C68.0249 10.6875 73.2824 13.065 80.3249 18.3525C80.6249 18.5775 80.7149 18.9975 80.5049 19.3088C78.2062 22.6913 73.0724 25.4325 60.4799 30.315C57.857 31.3242 54.9502 31.3082 52.3387 30.27C38.9287 24.945 32.7637 22.095 32.0137 19.1363C31.9893 19.0182 31.9989 18.8956 32.0414 18.7828C32.0838 18.6699 32.1575 18.5715 32.2537 18.4988Z" stroke="#171717" stroke-width="3" stroke-linecap="round" stroke-linejoin="round"/>
</svg>
