<svg width="159" height="159" viewBox="0 0 159 159" fill="none" xmlns="http://www.w3.org/2000/svg">
<path d="M79.5459 111.192C79.5462 109.367 80.0263 107.575 80.938 105.995C81.8497 104.415 83.161 103.102 84.7402 102.189L141.999 69.0914C142.526 68.7868 142.963 68.3488 143.267 67.8216C143.572 67.2944 143.732 66.6964 143.732 66.0877C143.732 65.4791 143.572 64.8811 143.267 64.3539C142.963 63.8266 142.526 63.3887 141.999 63.0841L84.7402 29.9864C84.214 29.6826 83.6172 29.5226 83.0097 29.5225C82.4021 29.5223 81.8052 29.682 81.2789 29.9855C80.7526 30.289 80.3154 30.7257 80.0112 31.2516C79.707 31.7775 79.5466 32.3743 79.5459 32.9818M79.5459 111.192V126.11M79.5459 111.192C79.5457 109.367 79.0656 107.575 78.1539 105.995C77.2422 104.415 75.9309 103.102 74.3517 102.189L17.0932 69.0914C16.5662 68.7868 16.1286 68.3488 15.8244 67.8216C15.5202 67.2944 15.3601 66.6964 15.3601 66.0877C15.3601 65.4791 15.5202 64.8811 15.8244 64.3539C16.1286 63.8266 16.5662 63.3887 17.0932 63.0841L74.3517 29.9864C74.8779 29.6826 75.4747 29.5226 76.0822 29.5225C76.6898 29.5223 77.2867 29.682 77.813 29.9855C78.3393 30.289 78.7765 30.7257 79.0807 31.2516C79.3849 31.7775 79.5453 32.3743 79.5459 32.9818M79.5459 126.11C79.5466 126.717 79.707 127.314 80.0112 127.84C80.3154 128.366 80.7526 128.802 81.2789 129.106C81.8052 129.409 82.4021 129.569 83.0097 129.569C83.6172 129.569 84.214 129.409 84.7402 129.105L108.671 115.273C110.25 114.361 111.562 113.048 112.475 111.468C113.387 109.888 113.868 108.095 113.868 106.271V91.0205C113.868 89.1953 113.388 87.4022 112.475 85.8214C111.563 84.2406 110.251 82.9276 108.671 82.0145L84.7402 68.1829C83.1605 67.2693 81.8489 65.9562 80.9372 64.3754C80.0255 62.7946 79.5457 61.0018 79.5459 59.1769M79.5459 126.11C79.5453 126.717 79.3849 127.314 79.0807 127.84C78.7765 128.366 78.3393 128.802 77.813 129.106C77.2867 129.409 76.6898 129.569 76.0822 129.569C75.4747 129.569 74.8779 129.409 74.3517 129.105L50.4213 115.273C48.8414 114.361 47.5295 113.048 46.6172 111.468C45.7049 109.888 45.2244 108.095 45.2237 106.271V91.0205C45.2238 89.1953 45.7041 87.4022 46.6164 85.8214C47.5287 84.2406 48.841 82.9276 50.4213 82.0145L74.3517 68.1829C75.9314 67.2693 77.243 65.9562 78.1547 64.3754C79.0664 62.7946 79.5462 61.0018 79.5459 59.1769M79.5459 59.1769V32.9818" stroke="#171717" stroke-opacity="0.7" stroke-width="3" stroke-linecap="round" stroke-linejoin="round"/>
</svg>
