<svg width="90" height="90" viewBox="0 0 90 90" fill="none" xmlns="http://www.w3.org/2000/svg">
<path d="M75.9375 14.7656H14.0625C12.7571 14.7656 11.5052 15.2842 10.5822 16.2072C9.65918 17.1302 9.14063 18.3821 9.14063 19.6875V75.9375C9.14052 76.297 9.23229 76.6506 9.40724 76.9646C9.58218 77.2787 9.83449 77.5428 10.1402 77.732C10.4459 77.9211 10.7949 78.029 11.1541 78.0453C11.5132 78.0617 11.8705 77.986 12.1922 77.8254L22.5 72.6715L32.8078 77.8254C33.1004 77.9715 33.423 78.0475 33.75 78.0475C34.077 78.0475 34.3996 77.9715 34.6922 77.8254L45 72.6715L55.3078 77.8254C55.6004 77.9715 55.923 78.0475 56.25 78.0475C56.577 78.0475 56.8996 77.9715 57.1922 77.8254L67.5 72.6715L77.8078 77.8254C78.1005 77.9712 78.423 78.0471 78.75 78.0469C79.1415 78.0475 79.5253 77.9378 79.8574 77.7305C80.1634 77.5417 80.416 77.278 80.5914 76.9642C80.7667 76.6504 80.859 76.297 80.8594 75.9375V19.6875C80.8594 18.3821 80.3408 17.1302 79.4178 16.2072C78.4948 15.2842 77.2429 14.7656 75.9375 14.7656ZM76.6406 72.5238L68.4422 68.4246C68.1496 68.2785 67.827 68.2025 67.5 68.2025C67.173 68.2025 66.8504 68.2785 66.5578 68.4246L56.25 73.5785L45.9422 68.4246C45.6496 68.2785 45.327 68.2025 45 68.2025C44.673 68.2025 44.3504 68.2785 44.0578 68.4246L33.75 73.5785L23.4422 68.4246C23.1496 68.2785 22.827 68.2025 22.5 68.2025C22.173 68.2025 21.8504 68.2785 21.5578 68.4246L13.3594 72.5238V19.6875C13.3594 19.501 13.4335 19.3222 13.5653 19.1903C13.6972 19.0585 13.876 18.9844 14.0625 18.9844H75.9375C76.124 18.9844 76.3028 19.0585 76.4347 19.1903C76.5665 19.3222 76.6406 19.501 76.6406 19.6875V72.5238ZM35.6379 32.7973C35.4629 32.4463 35.1936 32.151 34.8601 31.9446C34.5266 31.7382 34.1422 31.6288 33.75 31.6288C33.3578 31.6288 32.9734 31.7382 32.6399 31.9446C32.3064 32.151 32.0371 32.4463 31.8621 32.7973L20.6121 55.2973C20.4884 55.5452 20.4147 55.8151 20.3953 56.0914C20.3758 56.3678 20.411 56.6454 20.4988 56.9082C20.5866 57.171 20.7254 57.4139 20.9071 57.6231C21.0888 57.8323 21.3099 58.0036 21.5578 58.1273C21.8057 58.2511 22.0756 58.3248 22.352 58.3442C22.6284 58.3636 22.9059 58.3284 23.1687 58.2406C23.4315 58.1528 23.6744 58.0141 23.8836 57.8324C24.0928 57.6507 24.2642 57.4296 24.3879 57.1816L26.6168 52.7344H40.8832L43.1121 57.1922C43.362 57.6929 43.8005 58.0738 44.3313 58.2512C44.862 58.4285 45.4415 58.3878 45.9422 58.1379C46.4429 57.888 46.8238 57.4495 47.0012 56.9187C47.1785 56.388 47.1378 55.8085 46.8879 55.3078L35.6379 32.7973ZM28.7262 48.5156L33.75 38.468L38.7738 48.5156H28.7262ZM69.6094 45C69.6094 45.5594 69.3871 46.096 68.9916 46.4916C68.596 46.8871 68.0594 47.1094 67.5 47.1094H61.1719V53.4375C61.1719 53.9969 60.9496 54.5335 60.5541 54.9291C60.1585 55.3246 59.6219 55.5469 59.0625 55.5469C58.5031 55.5469 57.9665 55.3246 57.5709 54.9291C57.1754 54.5335 56.9531 53.9969 56.9531 53.4375V47.1094H50.625C50.0656 47.1094 49.529 46.8871 49.1334 46.4916C48.7379 46.096 48.5156 45.5594 48.5156 45C48.5156 44.4406 48.7379 43.904 49.1334 43.5084C49.529 43.1129 50.0656 42.8906 50.625 42.8906H56.9531V36.5625C56.9531 36.0031 57.1754 35.4665 57.5709 35.0709C57.9665 34.6754 58.5031 34.4531 59.0625 34.4531C59.6219 34.4531 60.1585 34.6754 60.5541 35.0709C60.9496 35.4665 61.1719 36.0031 61.1719 36.5625V42.8906H67.5C68.0594 42.8906 68.596 43.1129 68.9916 43.5084C69.3871 43.904 69.6094 44.4406 69.6094 45Z" fill="#171717"/>
</svg>
