<svg width="70" height="70" viewBox="0 0 70 70" fill="none" xmlns="http://www.w3.org/2000/svg">
<path d="M2.91699 58.3333V55.4167C2.91699 50.0018 5.06803 44.8088 8.8969 40.9799C12.7258 37.151 17.9188 35 23.3337 35C28.7485 35 33.9416 37.151 37.7704 40.9799C41.5993 44.8088 43.7503 50.0018 43.7503 55.4167V58.3333" stroke="#171717" stroke-width="3" stroke-linecap="round"/>
<path d="M37.917 40.8333C37.917 36.9656 39.4534 33.2563 42.1884 30.5214C44.9233 27.7865 48.6326 26.25 52.5003 26.25C54.4154 26.25 56.3118 26.6272 58.0811 27.3601C59.8505 28.093 61.4581 29.1672 62.8123 30.5214C64.1665 31.8755 65.2407 33.4832 65.9736 35.2525C66.7065 37.0219 67.0837 38.9182 67.0837 40.8333V42.2917" stroke="#171717" stroke-width="3" stroke-linecap="round"/>
<path d="M23.3337 35C26.4279 35 29.3953 33.7708 31.5832 31.5829C33.7712 29.395 35.0003 26.4275 35.0003 23.3333C35.0003 20.2391 33.7712 17.2717 31.5832 15.0838C29.3953 12.8958 26.4279 11.6667 23.3337 11.6667C20.2395 11.6667 17.272 12.8958 15.0841 15.0838C12.8962 17.2717 11.667 20.2391 11.667 23.3333C11.667 26.4275 12.8962 29.395 15.0841 31.5829C17.272 33.7708 20.2395 35 23.3337 35ZM52.5003 26.25C54.821 26.25 57.0466 25.3281 58.6875 23.6872C60.3285 22.0462 61.2503 19.8206 61.2503 17.5C61.2503 15.1794 60.3285 12.9538 58.6875 11.3128C57.0466 9.67187 54.821 8.75 52.5003 8.75C50.1797 8.75 47.9541 9.67187 46.3131 11.3128C44.6722 12.9538 43.7503 15.1794 43.7503 17.5C43.7503 19.8206 44.6722 22.0462 46.3131 23.6872C47.9541 25.3281 50.1797 26.25 52.5003 26.25Z" stroke="#171717" stroke-width="3" stroke-linecap="round" stroke-linejoin="round"/>
</svg>
