<svg width="70" height="70" viewBox="0 0 70 70" fill="none" xmlns="http://www.w3.org/2000/svg">
<path d="M55.417 60.5209C56.1905 60.5209 56.9324 60.2136 57.4794 59.6666C58.0264 59.1197 58.3337 58.3778 58.3337 57.6042V53.9701C58.3453 45.7859 46.7428 39.3751 35.0003 39.3751C23.2578 39.3751 11.667 45.7859 11.667 53.9701V57.6042C11.667 58.3778 11.9743 59.1197 12.5213 59.6666C13.0682 60.2136 13.8101 60.5209 14.5837 60.5209H55.417ZM45.512 19.9909C45.512 21.3713 45.2401 22.7382 44.7118 24.0136C44.1836 25.2889 43.4093 26.4477 42.4332 27.4238C41.4571 28.3999 40.2983 29.1742 39.023 29.7024C37.7476 30.2307 36.3807 30.5026 35.0003 30.5026C33.6199 30.5026 32.253 30.2307 30.9777 29.7024C29.7023 29.1742 28.5436 28.3999 27.5675 27.4238C26.5914 26.4477 25.8171 25.2889 25.2888 24.0136C24.7605 22.7382 24.4887 21.3713 24.4887 19.9909C24.4887 17.203 25.5961 14.5294 27.5675 12.558C29.5388 10.5867 32.2125 9.47925 35.0003 9.47925C37.7882 9.47925 40.4619 10.5867 42.4332 12.558C44.4045 14.5294 45.512 17.203 45.512 19.9909Z" stroke="#171717" stroke-width="3" stroke-linecap="round" stroke-linejoin="round"/>
</svg>
