<svg width="90" height="90" viewBox="0 0 90 90" fill="none" xmlns="http://www.w3.org/2000/svg">
<path d="M33.75 37.5H33.7875M56.25 37.5H56.2875M11.25 45C11.25 49.4321 12.123 53.8208 13.8191 57.9156C15.5152 62.0103 18.0012 65.7309 21.1351 68.8649C24.2691 71.9988 27.9897 74.4848 32.0844 76.1809C36.1792 77.877 40.5679 78.75 45 78.75C49.4321 78.75 53.8208 77.877 57.9156 76.1809C62.0103 74.4848 65.7309 71.9988 68.8649 68.8649C71.9988 65.7309 74.4848 62.0103 76.1809 57.9156C77.877 53.8208 78.75 49.4321 78.75 45C78.75 40.5679 77.877 36.1792 76.1809 32.0844C74.4848 27.9897 71.9988 24.2691 68.8649 21.1351C65.7309 18.0012 62.0103 15.5152 57.9156 13.8191C53.8208 12.123 49.4321 11.25 45 11.25C40.5679 11.25 36.1792 12.123 32.0844 13.8191C27.9897 15.5152 24.2691 18.0012 21.1351 21.1351C18.0012 24.2691 15.5152 27.9897 13.8191 32.0844C12.123 36.1792 11.25 40.5679 11.25 45Z" stroke="#171717" stroke-width="3" stroke-linecap="round" stroke-linejoin="round"/>
<path d="M35.625 56.25C36.847 57.4972 38.3057 58.4881 39.9155 59.1645C41.5253 59.841 43.2539 60.1894 45 60.1894C46.7461 60.1894 48.4747 59.841 50.0845 59.1645C51.6943 58.4881 53.153 57.4972 54.375 56.25M45 11.25C43.0109 11.25 41.1032 12.0402 39.6967 13.4467C38.2902 14.8532 37.5 16.7609 37.5 18.75C37.5 20.7391 38.2902 22.6468 39.6967 24.0533C41.1032 25.4598 43.0109 26.25 45 26.25" stroke="#171717" stroke-width="3" stroke-linecap="round" stroke-linejoin="round"/>
</svg>
