<svg width="90" height="90" viewBox="0 0 90 90" fill="none" xmlns="http://www.w3.org/2000/svg">
<path d="M45.0001 23.9063C46.947 23.9063 48.8502 23.3289 50.469 22.2473C52.0878 21.1656 53.3495 19.6283 54.0946 17.8295C54.8396 16.0308 55.0345 14.0516 54.6547 12.1421C54.2749 10.2326 53.3374 8.47859 51.9607 7.10192C50.584 5.72525 48.83 4.78772 46.9205 4.4079C45.011 4.02808 43.0318 4.22302 41.2331 4.96807C39.4344 5.71312 37.897 6.97481 36.8153 8.59361C35.7337 10.2124 35.1564 12.1156 35.1564 14.0625C35.1564 16.6732 36.1935 19.177 38.0395 21.0231C39.8856 22.8691 42.3894 23.9063 45.0001 23.9063ZM45.0001 7.03125C46.3908 7.03125 47.7502 7.44363 48.9065 8.21623C50.0627 8.98884 50.964 10.087 51.4961 11.3718C52.0283 12.6566 52.1676 14.0703 51.8963 15.4342C51.625 16.7982 50.9553 18.051 49.972 19.0343C48.9886 20.0177 47.7358 20.6873 46.3718 20.9587C45.0079 21.23 43.5942 21.0907 42.3094 20.5585C41.0246 20.0264 39.9264 19.1251 39.1538 17.9689C38.3812 16.8126 37.9689 15.4532 37.9689 14.0625C37.9689 12.1977 38.7097 10.4093 40.0283 9.09066C41.3469 7.77204 43.1353 7.03125 45.0001 7.03125ZM75.7337 48.0867L59.8255 30.0516C58.9018 29.0041 57.7657 28.1652 56.4928 27.5906C55.2199 27.016 53.8393 26.7188 52.4427 26.7188H37.5575C36.1609 26.7188 34.7803 27.016 33.5074 27.5906C32.2345 28.1652 31.0985 29.0041 30.1747 30.0516L14.2665 48.0867C13.2335 49.1436 12.658 50.5646 12.6644 52.0425C12.6707 53.5204 13.2584 54.9364 14.3004 55.9844C15.3424 57.0324 16.755 57.6282 18.2328 57.6431C19.7106 57.6579 21.1349 57.0906 22.1978 56.0637L31.2892 48.7617L24.3634 75.0867C23.7608 76.4394 23.716 77.9751 24.2386 79.3607C24.7612 80.7462 25.8091 81.8698 27.1548 82.4876C28.5006 83.1054 30.0357 83.1676 31.4271 82.6608C32.8185 82.1539 33.9538 81.1188 34.5868 79.7801L45.0001 61.875L55.3993 79.8047C56.0323 81.1434 57.1677 82.1785 58.5591 82.6854C59.9504 83.1922 61.4855 83.13 62.8313 82.5122C64.1771 81.8944 65.225 80.7708 65.7476 79.3853C66.2702 77.9997 66.2253 76.464 65.6228 75.1113L58.711 48.7617L67.8165 56.0637C68.8794 57.0906 70.3036 57.6579 71.7814 57.6431C73.2593 57.6282 74.6719 57.0324 75.7139 55.9844C76.7559 54.9364 77.3436 53.5204 77.3499 52.0425C77.3563 50.5646 76.7807 49.1436 75.7478 48.0867H75.7337ZM73.7087 54.0176C73.1813 54.5446 72.4662 54.8407 71.7206 54.8407C70.975 54.8407 70.2599 54.5446 69.7325 54.0176C69.6964 53.9808 69.6576 53.9467 69.6165 53.9156L57.1325 43.9031C56.902 43.7172 56.6187 43.6088 56.3229 43.5933C56.0272 43.5779 55.7341 43.6562 55.4855 43.8172C55.2368 43.9781 55.0454 44.2134 54.9384 44.4896C54.8314 44.7658 54.8143 45.0686 54.8896 45.3551L62.9298 75.9164C62.9509 75.9973 62.9791 76.0761 63.0142 76.152C63.1765 76.4875 63.2705 76.8519 63.2907 77.2241C63.3109 77.5963 63.257 77.9688 63.132 78.3199C63.007 78.6711 62.8134 78.9939 62.5626 79.2695C62.3117 79.5452 62.0086 79.7683 61.6707 79.9258C61.3329 80.0833 60.9672 80.1721 60.5947 80.187C60.2223 80.2019 59.8506 80.1426 59.5013 80.0126C59.152 79.8825 58.832 79.6844 58.5599 79.4296C58.2879 79.1749 58.0692 78.8686 57.9165 78.5285C57.8989 78.4898 57.8778 78.4547 57.8568 78.416L46.2165 58.3594C46.0929 58.1463 45.9155 57.9694 45.702 57.8464C45.4885 57.7235 45.2465 57.6587 45.0001 57.6587C44.7537 57.6587 44.5117 57.7235 44.2982 57.8464C44.0848 57.9694 43.9073 58.1463 43.7837 58.3594L32.14 78.416C32.1189 78.4547 32.0978 78.4898 32.0802 78.5285C31.9275 78.8686 31.7088 79.1749 31.4368 79.4296C31.1647 79.6844 30.8447 79.8825 30.4954 80.0126C30.1461 80.1426 29.7744 80.2019 29.402 80.187C29.0295 80.1721 28.6638 80.0833 28.326 79.9258C27.9881 79.7683 27.685 79.5452 27.4341 79.2695C27.1833 78.9939 26.9897 78.6711 26.8647 78.3199C26.7397 77.9688 26.6858 77.5963 26.706 77.2241C26.7262 76.8519 26.8202 76.4875 26.9825 76.152C27.0176 76.0761 27.0458 75.9973 27.0669 75.9164L35.1107 45.3516C35.1859 45.0651 35.1688 44.7622 35.0618 44.4861C34.9548 44.2099 34.7634 43.9746 34.5148 43.8137C34.2661 43.6527 33.9731 43.5744 33.6773 43.5898C33.3815 43.6053 33.0982 43.7137 32.8677 43.8996L20.3907 53.9156C20.3496 53.9467 20.3108 53.9808 20.2747 54.0176C19.743 54.5228 19.0349 54.8002 18.3015 54.7908C17.5682 54.7815 16.8674 54.4859 16.3488 53.9673C15.8302 53.4487 15.5347 52.748 15.5253 52.0146C15.5159 51.2812 15.7934 50.5731 16.2985 50.0414L16.3583 49.9781L32.2841 31.9113C32.944 31.1632 33.7555 30.5641 34.6647 30.1538C35.5739 29.7434 36.56 29.5312 37.5575 29.5313H52.4427C53.4402 29.5312 54.4263 29.7434 55.3356 30.1538C56.2448 30.5641 57.0563 31.1632 57.7161 31.9113L73.6489 49.9781L73.7087 50.0414C74.2358 50.5688 74.5318 51.2839 74.5318 52.0295C74.5318 52.7751 74.2358 53.4902 73.7087 54.0176Z" fill="#171717"/>
</svg>
