<svg width="20" height="20" viewBox="0 0 20 20" fill="none" xmlns="http://www.w3.org/2000/svg">
<g opacity="0.5">
<path d="M10.4943 19.3818L10.4851 19.3834L10.426 19.4126L10.4093 19.4159L10.3976 19.4126L10.3385 19.3834C10.3296 19.3807 10.3229 19.3821 10.3185 19.3876L10.3151 19.3959L10.301 19.7526L10.3051 19.7693L10.3135 19.7801L10.4001 19.8418L10.4126 19.8451L10.4226 19.8418L10.5093 19.7801L10.5193 19.7668L10.5226 19.7526L10.5085 19.3968C10.5063 19.3879 10.5015 19.3829 10.4943 19.3818ZM10.7151 19.2876L10.7043 19.2893L10.5501 19.3668L10.5418 19.3751L10.5393 19.3843L10.5543 19.7426L10.5585 19.7526L10.5651 19.7584L10.7326 19.8359C10.7432 19.8387 10.7513 19.8365 10.7568 19.8293L10.7601 19.8176L10.7318 19.3059C10.729 19.2959 10.7235 19.2898 10.7151 19.2876ZM10.1193 19.2893C10.1156 19.2871 10.1112 19.2863 10.1071 19.2873C10.1029 19.2882 10.0992 19.2907 10.0968 19.2943L10.0918 19.3059L10.0635 19.8176C10.064 19.8276 10.0688 19.8343 10.0776 19.8376L10.0901 19.8359L10.2576 19.7584L10.266 19.7518L10.2693 19.7426L10.2835 19.3843L10.281 19.3743L10.2726 19.3659L10.1193 19.2893Z" fill="#171717"/>
<path d="M10.0003 1.66675C14.6028 1.66675 18.3337 5.39758 18.3337 10.0001C18.3337 14.6026 14.6028 18.3334 10.0003 18.3334C5.39783 18.3334 1.66699 14.6026 1.66699 10.0001C1.66699 5.39758 5.39783 1.66675 10.0003 1.66675ZM10.0003 3.33341C8.23222 3.33341 6.53652 4.03579 5.28628 5.28604C4.03604 6.53628 3.33366 8.23197 3.33366 10.0001C3.33366 11.7682 4.03604 13.4639 5.28628 14.7141C6.53652 15.9644 8.23222 16.6667 10.0003 16.6667C11.7684 16.6667 13.4641 15.9644 14.7144 14.7141C15.9646 13.4639 16.667 11.7682 16.667 10.0001C16.667 8.23197 15.9646 6.53628 14.7144 5.28604C13.4641 4.03579 11.7684 3.33341 10.0003 3.33341ZM10.0003 5.00008C10.2044 5.00011 10.4014 5.07504 10.554 5.21068C10.7065 5.34631 10.8039 5.53321 10.8278 5.73591L10.8337 5.83341V9.65508L13.0895 11.9109C13.2389 12.0609 13.3257 12.2621 13.3322 12.4737C13.3386 12.6854 13.2643 12.8915 13.1243 13.0503C12.9843 13.2091 12.789 13.3087 12.5783 13.3287C12.3675 13.3488 12.157 13.2879 11.9895 13.1584L11.9112 13.0892L9.41116 10.5892C9.28164 10.4596 9.19846 10.2909 9.17449 10.1092L9.16699 10.0001V5.83341C9.16699 5.6124 9.25479 5.40044 9.41107 5.24416C9.56735 5.08788 9.77931 5.00008 10.0003 5.00008Z" fill="#171717"/>
</g>
</svg>
